HIERARCHY
ROOT root
{
	OFFSET 0.000000 0.000000 0.000000
	CHANNELS 6 Xposition Yposition Zposition Zrotation Yrotation Xrotation
	JOINT lhip
	{
		OFFSET 0.058581 -0.082280 -0.017664
		CHANNELS 3 Zrotation Yrotation Xrotation
		JOINT lknee
		{
			OFFSET 0.043451 -0.386469 0.008037
			CHANNELS 3 Zrotation Yrotation Xrotation
			JOINT lankle
			{
				OFFSET -0.014790 -0.426874 -0.037428
				CHANNELS 3 Zrotation Yrotation Xrotation
				JOINT ltoe
				{
					OFFSET 0.041054 -0.060286 0.122042
					CHANNELS 3 Zrotation Yrotation Xrotation
					End Site
					{
						OFFSET 0.000000 0.000000 0.000000
					}
				}
			}
		}
	}
	JOINT rhip
	{
		OFFSET -0.060310 -0.090513 -0.013543
		CHANNELS 3 Zrotation Yrotation Xrotation
		JOINT rknee
		{
			OFFSET -0.043257 -0.383688 -0.004843
			CHANNELS 3 Zrotation Yrotation Xrotation
			JOINT rankle
			{
				OFFSET 0.019056 -0.420046 -0.034562
				CHANNELS 3 Zrotation Yrotation Xrotation
				JOINT rtoe
				{
					OFFSET -0.034840 -0.062106 0.130323
					CHANNELS 3 Zrotation Yrotation Xrotation
					End Site
					{
						OFFSET 0.000000 0.000000 0.000000
					}
				}
			}
		}
	}
	JOINT lowerback
	{
		OFFSET 0.004439 0.124404 -0.038385
		CHANNELS 3 Zrotation Yrotation Xrotation
		JOINT upperback
		{
			OFFSET 0.004488 0.137956 0.026820
			CHANNELS 3 Zrotation Yrotation Xrotation
			JOINT chest
			{
				OFFSET -0.002265 0.056032 0.002855
				CHANNELS 3 Zrotation Yrotation Xrotation
				JOINT lowerneck
				{
					OFFSET -0.013390 0.211636 -0.033468
					CHANNELS 3 Zrotation Yrotation Xrotation
					JOINT upperneck
					{
						OFFSET 0.010113 0.088937 0.050410
						CHANNELS 3 Zrotation Yrotation Xrotation
						End Site
						{
							OFFSET 0.000000 0.000000 0.000000
						}
					}
				}
				JOINT lclavicle
				{
					OFFSET 0.071702 0.114000 -0.018898
					CHANNELS 3 Zrotation Yrotation Xrotation
					JOINT lshoulder
					{
						OFFSET 0.122921 0.045205 -0.019046
						CHANNELS 3 Zrotation Yrotation Xrotation
						JOINT lelbow
						{
							OFFSET 0.255332 -0.015649 -0.022946
							CHANNELS 3 Zrotation Yrotation Xrotation
							JOINT lwrist
							{
								OFFSET 0.265709 0.012698 -0.007375
								CHANNELS 3 Zrotation Yrotation Xrotation
								End Site
								{
									OFFSET 0.000000 0.000000 0.000000
								}
							}
						}
					}
				}
				JOINT rclavicle
				{
					OFFSET -0.082954 0.112472 -0.023707
					CHANNELS 3 Zrotation Yrotation Xrotation
					JOINT rshoulder
					{
						OFFSET -0.113228 0.046853 -0.008472
						CHANNELS 3 Zrotation Yrotation Xrotation
						JOINT relbow
						{
							OFFSET -0.260127 -0.014369 -0.031269
							CHANNELS 3 Zrotation Yrotation Xrotation
							JOINT rwrist
							{
								OFFSET -0.269108 0.006794 -0.006027
								CHANNELS 3 Zrotation Yrotation Xrotation
								End Site
								{
									OFFSET 0.000000 0.000000 0.000000
								}
							}
						}
					}
				}
			}
		}
	}
}
MOTION
Frames: 5
Frame Time: 0.033333
0.481619 0.462888 0.986468 155.179580 -0.256382 75.550654 9.851802 -1.870589 -12.607864 -19.156526 -14.311799 55.568343 -18.739739 -15.593959 -0.133438 0.000000 -0.000000 0.000000 -3.698919 -0.434542 -4.432585 -3.890319 5.886218 23.309532 2.415320 -0.980746 -10.320099 0.000000 -0.000000 0.000000 1.409741 4.092497 14.977088 -3.001828 -2.076935 12.669090 -4.805455 0.629488 -4.548900 -0.558473 0.609448 25.826136 -1.091901 3.391591 18.474199 -29.053495 -9.271685 0.086028 -37.856979 -7.155683 -2.829268 21.218608 -35.253488 -19.629993 1.028600 -5.741434 0.104287 16.904848 16.537464 3.099971 30.437428 27.358179 -1.986051 -93.275362 62.347129 -71.137766 -13.198413 13.239345 10.269430 
0.483787 0.460987 0.990747 157.016960 -1.420645 77.331903 10.140418 -2.399696 -16.885210 -13.138437 -7.422174 50.337643 -13.320258 -9.580681 -5.072384 0.000000 -0.000000 0.000000 -4.875131 -0.799138 -4.924102 -4.610757 5.085536 21.447525 2.673961 -1.508676 -9.778310 0.000000 -0.000000 0.000000 0.843397 5.324165 16.169783 -2.738255 -1.847402 12.044346 -4.481793 1.109055 -4.749778 -0.164094 -0.289107 24.630316 -0.267345 1.816678 19.644177 -29.649982 -8.888311 1.758373 -41.451076 -8.426804 0.070534 19.486695 -40.138514 -11.391677 -1.685569 -6.289282 0.756563 21.136942 17.060104 6.622522 38.330888 28.299153 0.842114 -68.653516 58.758131 -47.658512 -9.829059 11.267585 11.726173 
0.484644 0.460476 0.995923 159.199525 -2.463131 78.874509 10.083331 -3.122747 -19.526103 -9.835643 -4.406039 43.385373 -9.893982 -5.571320 -6.736520 0.000000 -0.000000 0.000000 -6.397948 -1.698432 -4.649750 -4.735430 4.181736 18.877899 2.827064 -1.995282 -8.943633 0.000000 -0.000000 0.000000 0.555329 5.916072 17.456668 -2.731711 -1.859896 11.802466 -4.083331 1.353546 -4.728606 -0.618825 -0.773985 22.981838 0.451474 0.907033 19.619923 -29.764874 -8.911915 2.915105 -44.589906 -8.923571 3.092364 18.348259 -44.868632 -4.121522 -1.883569 -6.258193 1.289100 24.145854 18.236727 9.076828 44.636938 28.662165 2.578363 -49.993100 49.320244 -30.495651 -5.675429 8.829929 16.223178 
0.484186 0.462126 0.998804 161.351470 -2.944791 80.702380 10.387797 -3.820116 -21.446727 -8.138816 -4.091980 35.053272 -8.814305 -3.425251 -6.899018 0.000000 -0.000000 0.000000 -7.641979 -2.722054 -4.533828 -4.456258 2.926098 16.311757 3.457284 -2.130870 -8.268645 0.000000 -0.000000 0.000000 0.702360 6.402395 18.286610 -2.479152 -1.761095 11.428133 -3.519944 1.664071 -4.537900 -0.869317 -1.469397 21.317705 0.900710 -0.701353 19.230069 -29.648381 -9.024509 4.305682 -48.260001 -10.253605 6.339248 18.314433 -47.776758 -1.744618 1.548080 -6.416238 0.395102 26.599285 18.529745 10.741814 47.314591 27.680225 3.558482 -36.415736 40.273950 -18.721992 -2.142466 5.546099 19.368912 
0.481637 0.463604 0.999749 164.003307 -2.626382 82.605081 11.058765 -3.817366 -23.133458 -6.690400 -5.781585 26.575059 -8.539271 -2.433069 -7.083900 0.000000 -0.000000 0.000000 -8.299853 -4.175430 -4.789764 -3.692509 1.436678 14.377255 3.813012 -2.494893 -7.694652 0.000000 -0.000000 0.000000 1.376738 5.996436 19.431149 -1.940134 -1.633556 10.248802 -2.705788 1.670747 -3.959721 -1.326259 -2.118747 18.670276 1.055894 -2.300973 19.867029 -30.125792 -8.573074 3.945378 -50.113108 -11.011616 9.264164 15.646120 -50.202628 3.736201 -0.862565 -6.787873 -0.784218 28.631880 18.325972 12.270203 47.812698 25.792855 4.867810 -25.311787 33.906627 -9.774113 1.444168 3.395245 18.858062 
